<?xml version="1.0" encoding="UTF-8" standalone="no"?>
<!-- Created with Inkscape (http://www.inkscape.org/) -->

<svg
   xmlns:dc="http://purl.org/dc/elements/1.1/"
   xmlns:cc="http://creativecommons.org/ns#"
   xmlns:rdf="http://www.w3.org/1999/02/22-rdf-syntax-ns#"
   xmlns:svg="http://www.w3.org/2000/svg"
   xmlns="http://www.w3.org/2000/svg"
   xmlns:sodipodi="http://sodipodi.sourceforge.net/DTD/sodipodi-0.dtd"
   xmlns:inkscape="http://www.inkscape.org/namespaces/inkscape"
   id="svg3629"
   version="1.1"
   inkscape:version="0.91 r13725"
   width="100"
   height="120.91031"
   viewBox="0 0 100 120.91031"
   sodipodi:docname="Simbolo_sheikah.svg">
  <metadata
     id="metadata3635">
    <rdf:RDF>
      <cc:Work
         rdf:about="">
        <dc:format>image/svg+xml</dc:format>
        <dc:type
           rdf:resource="http://purl.org/dc/dcmitype/StillImage" />
        <dc:title></dc:title>
      </cc:Work>
    </rdf:RDF>
  </metadata>
  <defs
     id="defs3633" />
  <sodipodi:namedview
     pagecolor="#ffffff"
     bordercolor="#666666"
     borderopacity="1"
     objecttolerance="10"
     gridtolerance="10"
     guidetolerance="10"
     inkscape:pageopacity="0"
     inkscape:pageshadow="2"
     inkscape:window-width="1305"
     inkscape:window-height="744"
     id="namedview3631"
     showgrid="false"
     fit-margin-right="3"
     fit-margin-top="3"
     fit-margin-bottom="3"
     fit-margin-left="3"
     inkscape:zoom="3.8007619"
     inkscape:cx="59.771628"
     inkscape:cy="58.965532"
     inkscape:window-x="1207"
     inkscape:window-y="24"
     inkscape:window-maximized="1"
     inkscape:current-layer="svg3629" />
  <path
     style="fill:#000000"
     d="m 48.476235,117.67382 c -4.447926,-1.66285 -7.346438,-7.73719 -7.350954,-15.40521 -0.0025,-4.18549 0.629251,-7.97789 2.865592,-17.20304 1.905129,-7.85887 2.745155,-12.64805 2.912203,-16.60315 l 0.06055,-1.43376 -1.639174,-0.16113 C 35.717752,65.92322 26.557036,61.42836 19.220449,54.05917 l -2.745776,-2.75797 -2.422338,0.4665 c -9.3996824,1.81021 -15.2174764,-5.97575 -7.4190334,-9.92891 1.199777,-0.60819 1.251711,-0.57348 0.59341,0.39658 -2.564151,3.77849 0.09403,7.44785 4.8572444,6.70495 3.478973,-0.5426 4.091209,-0.86226 6.705436,-3.50106 17.647477,-17.81331 44.336827,-18.02957 62.084652,-0.50306 3.034024,2.99619 3.529209,3.28983 6.556696,3.88803 5.48625,1.08403 8.605631,-3.24674 5.159577,-7.16326 -0.307958,-0.35 -0.293368,-0.35735 0.279994,-0.14104 2.779156,1.04849 4.428129,3.22829 4.084732,5.39966 -0.651021,4.11654 -4.806329,5.98858 -10.751372,4.84367 l -2.445392,-0.47094 -2.517824,2.55162 c -7.334511,7.43295 -16.888375,12.18869 -26.080954,12.98263 -2.531708,0.21866 -2.384974,0.10804 -2.244076,1.69176 0.475892,5.34904 1.119046,8.94086 2.962968,16.54724 3.228552,13.31814 3.628864,18.75709 1.824237,24.78547 -1.607296,5.36919 -5.947065,9.04875 -9.226395,7.82278 z m 5.18271,-55.75358 c 9.33698,-3.24708 11.25711,-16.45533 3.264205,-22.45389 -8.022452,-6.02074 -18.958167,-0.0505 -18.958167,10.34994 0,8.72317 7.898563,14.81492 15.693962,12.10395 z M 38.167827,60.79655 c -5.689855,-7.04762 -4.867506,-18.88661 1.649249,-23.7435 0.760263,-0.56662 0.509586,-0.56064 -1.474224,0.0351 -8.212579,2.46643 -20.095025,10.72658 -18.635288,12.95442 2.872808,4.38446 13.394798,10.98118 19.721885,12.36455 0.02585,0.006 -0.541882,-0.71913 -1.261624,-1.61062 z m 25.107298,0.78094 c 5.745167,-1.85463 11.223528,-5.27626 15.507805,-9.68575 2.402419,-2.47263 2.364018,-2.18225 0.552601,-4.17845 -3.874712,-4.26996 -10.134126,-8.22138 -16.103996,-10.16607 -4.196548,-1.36702 -4.084212,-1.37244 -2.591172,0.125 6.220382,6.23872 6.674825,16.17098 1.058198,23.12789 -1.490006,1.84557 -1.585926,1.79827 1.576564,0.77738 z M 10.440544,27.30978 C 9.2985826,20.3109 8.3934766,14.55532 8.4291956,14.5196 c 0.08616,-0.0862 21.8376224,13.54802 21.8247034,13.68009 -0.0055,0.0563 -1.273171,0.71674 -2.817019,1.46754 -4.944107,2.40442 -8.371505,4.68262 -12.706324,8.44593 l -2.213721,1.92186 -2.076291,-12.72524 z m 6.60294,5.2204 c 1.400209,-0.99903 3.607555,-2.45123 4.905212,-3.22713 1.297659,-0.77589 2.336652,-1.48865 2.30888,-1.5839 -0.05315,-0.18229 -11.881254,-7.50768 -11.976957,-7.41758 -0.0774,0.0729 2.056517,14.04502 2.145049,14.04502 0.03959,0 1.21761,-0.81739 2.617816,-1.81641 z m 68.233148,5.89902 c -4.093107,-3.62569 -8.323491,-6.45205 -13.256972,-8.85712 -1.43277,-0.69847 -2.608364,-1.32373 -2.612434,-1.38946 -0.0088,-0.1419 21.724231,-13.77165 21.805177,-13.675 0.09668,0.11545 -4.073123,25.37118 -4.188865,25.37118 -0.06073,0 -0.84684,-0.65232 -1.746907,-1.4496 z m 1.091743,-11.2463 c 0.573989,-3.77099 1.023297,-6.87666 0.998463,-6.90149 -0.02483,-0.0248 -2.671465,1.56862 -5.881407,3.54102 -3.209939,1.9724 -5.961335,3.65808 -6.114213,3.74596 -0.192147,0.11046 0.282274,0.49582 1.536726,1.24824 2.259955,1.35553 5.092861,3.24385 6.819918,4.54594 1.662629,1.25351 1.424141,1.81165 2.640513,-6.17967 z M 39.372956,26.20194 C 39.810606,25.05479 49.85007,3.00005 49.934633,3 c 0.125592,-6e-5 10.703089,23.37689 10.615037,23.45992 -0.03457,0.0326 -0.569973,-0.023 -1.189786,-0.12356 -6.021073,-0.97679 -13.636273,-0.97088 -18.827243,0.0146 -1.391738,0.26422 -1.320822,0.27333 -1.159685,-0.14904 z m 16.503683,-3.5194 c 0,-0.20058 -5.848288,-12.71755 -5.942006,-12.71755 -0.09372,0 -5.942006,12.51697 -5.942006,12.71755 0,0.0481 2.673903,0.0874 5.942006,0.0874 3.268103,0 5.942006,-0.0393 5.942006,-0.0874 z"
     id="path3639"
     inkscape:connector-curvature="0" />
</svg>
